<svg width="20" height="24" viewBox="0 0 20 24" fill="none" xmlns="http://www.w3.org/2000/svg">
<path d="M16.7553 12.6941C16.7021 13.3368 16.8085 13.9795 17.1277 14.6223C17.6064 15.9613 18.5638 16.979 20 17.6217C19.5745 19.0143 18.883 20.2998 18.0319 21.5317C16.8617 23.1386 15.6915 23.9955 14.5745 23.9955C14.0426 23.9955 13.4043 23.8349 12.6596 23.5135C11.8085 23.1921 11.0638 23.0314 10.4787 23.0314C9.84043 23.0314 9.09574 23.2457 8.19149 23.567C7.44681 23.8884 6.8617 23.9955 6.48936 23.9955C5.69149 24.0491 4.84043 23.6206 3.98936 22.7101C3.29787 22.0673 2.60638 21.1032 1.96809 19.9249C1.43617 18.9608 1.01064 18.1038 0.744681 17.3004C0.212766 15.8006 0 14.3545 0 12.9619C0 11.4622 0.265957 10.1231 0.904255 8.99833C1.43617 7.98066 2.18085 7.17724 3.1383 6.64162C4.09574 6.10601 5.05319 5.8382 6.11702 5.78464C6.64894 5.78464 7.55319 5.99888 8.7234 6.42738C9.46808 6.74874 9.94681 6.85587 10.1596 6.85587C10.3723 6.85587 10.7979 6.74874 11.4894 6.48094C12.1277 6.26669 12.6596 6.05245 13.0851 5.94532C13.7234 5.78464 14.3617 5.73108 14.8936 5.73108C16.9149 5.94532 18.4043 6.74874 19.4149 8.14134C17.6064 9.21257 16.7021 10.7659 16.7553 12.6941ZM13.7234 3.85643V3.90999C12.5532 5.24902 11.3298 5.8382 10.0532 5.73108C9.89362 4.33848 10.3191 3.053 11.383 1.87465C11.8085 1.3926 12.3404 0.964106 13.0319 0.589176C13.6702 0.267807 14.3617 0.0535615 15 0C15.1064 1.44616 14.6809 2.73163 13.7234 3.85643Z" fill="white"/>
</svg>
