<svg width="265" height="164" viewBox="0 0 265 164" fill="none" xmlns="http://www.w3.org/2000/svg">
<path d="M70.194 128.042L87.5658 123.954C92.7675 122.73 97.9789 125.956 99.203 131.158L81.8311 135.246C76.6295 136.47 71.418 133.244 70.194 128.042Z" fill="url(#paint0_linear_0_1682)"/>
<path d="M90.4341 73.4401L22.3492 89.462C14.7511 91.25 7.14107 86.5488 5.35046 78.9396L87.1959 59.6795L90.4341 73.4401Z" fill="url(#paint1_linear_0_1682)"/>
<path d="M93.6795 87.227L42.7125 99.2207C35.1143 101.009 27.5018 96.2964 25.7137 88.6983L90.4414 73.4664L93.6795 87.227Z" fill="url(#paint2_linear_0_1682)"/>
<path d="M96.9123 100.971L57.0663 110.348C49.4682 112.136 41.8556 107.424 40.0676 99.8257L93.6741 87.2109L96.9123 100.971Z" fill="url(#paint3_linear_0_1682)"/>
<path d="M128.13 133.676C156.291 127.05 173.747 98.849 167.12 70.6885C160.494 42.5279 132.293 25.0714 104.132 31.6982C75.9717 38.325 58.5152 66.5257 65.142 94.6863C71.7688 122.847 99.9695 140.303 128.13 133.676Z" fill="url(#paint4_linear_0_1682)"/>
<path d="M120.296 73.688L49.494 90.3492C43.3979 91.7838 37.286 88.0005 35.8514 81.9043L35.2121 79.1875L103.297 63.1656C110.895 61.3776 118.508 66.0899 120.296 73.688Z" fill="url(#paint5_linear_0_1682)"/>
<path d="M123.535 87.4494L69.8508 100.082C63.7546 101.517 57.6427 97.7337 56.2082 91.6375L55.5688 88.9208L120.296 73.6889L123.535 87.4494Z" fill="url(#paint6_linear_0_1682)"/>
<path d="M113.013 104.458L84.2104 111.236C78.1143 112.67 72.0024 108.887 70.5678 102.791L69.9285 100.074L123.535 87.4593C125.323 95.0574 120.611 102.67 113.013 104.458Z" fill="url(#paint7_linear_0_1682)"/>
<path d="M86.851 129.532L104.223 125.444C109.424 124.22 114.636 127.446 115.86 132.647L98.4881 136.735C93.2865 137.959 88.075 134.734 86.851 129.532Z" fill="url(#paint8_linear_0_1682)"/>
<path d="M173.159 48.7323L200.528 110.262" stroke="url(#paint9_linear_0_1682)" stroke-width="3.90283" stroke-miterlimit="10"/>
<path d="M166.09 51.8788C183.423 44.1637 203.703 51.9764 211.418 69.3099C219.133 86.6434 211.321 106.934 193.987 114.638" stroke="url(#paint10_linear_0_1682)" stroke-width="10.7328" stroke-miterlimit="10"/>
<path d="M237.412 57.7434L163.108 90.7789" stroke="url(#paint11_linear_0_1682)" stroke-width="3.90283" stroke-miterlimit="10"/>
<path fill-rule="evenodd" clip-rule="evenodd" d="M239.877 63.3019L234.935 52.1843L249.637 52.3056L239.877 63.3019Z" fill="url(#paint12_linear_0_1682)"/>
<defs>
<linearGradient id="paint0_linear_0_1682" x1="98.1043" y1="126.44" x2="65.1607" y2="134.192" gradientUnits="userSpaceOnUse">
<stop stop-color="#E7E2CF"/>
<stop offset="0.32" stop-color="#F5A1C5"/>
<stop offset="0.66" stop-color="#065FC7"/>
<stop offset="1"/>
</linearGradient>
<linearGradient id="paint1_linear_0_1682" x1="88.815" y1="66.5598" x2="6.96955" y2="85.8199" gradientUnits="userSpaceOnUse">
<stop stop-color="#E7E2CF"/>
<stop offset="0.32" stop-color="#F5A1C5"/>
<stop offset="0.66" stop-color="#065FC7"/>
<stop offset="1"/>
</linearGradient>
<linearGradient id="paint2_linear_0_1682" x1="92.0604" y1="80.3467" x2="27.3328" y2="95.5785" gradientUnits="userSpaceOnUse">
<stop stop-color="#E7E2CF"/>
<stop offset="0.32" stop-color="#F5A1C5"/>
<stop offset="0.66" stop-color="#065FC7"/>
<stop offset="1"/>
</linearGradient>
<linearGradient id="paint3_linear_0_1682" x1="95.2932" y1="94.0912" x2="41.6977" y2="106.703" gradientUnits="userSpaceOnUse">
<stop stop-color="#E7E2CF"/>
<stop offset="0.32" stop-color="#F5A1C5"/>
<stop offset="0.66" stop-color="#065FC7"/>
<stop offset="1"/>
</linearGradient>
<linearGradient id="paint4_linear_0_1682" x1="149.468" y1="-2.88716" x2="97.0929" y2="131.551" gradientUnits="userSpaceOnUse">
<stop stop-color="#E7E2CF"/>
<stop offset="0.32" stop-color="#F5A1C5"/>
<stop offset="0.581426" stop-color="#065FC7"/>
<stop offset="1"/>
</linearGradient>
<linearGradient id="paint5_linear_0_1682" x1="118.679" y1="66.8187" x2="36.8338" y2="86.0788" gradientUnits="userSpaceOnUse">
<stop stop-color="#E7E2CF"/>
<stop offset="0.32" stop-color="#F5A1C5"/>
<stop offset="0.66" stop-color="#065FC7"/>
<stop offset="1"/>
</linearGradient>
<linearGradient id="paint6_linear_0_1682" x1="121.918" y1="80.5802" x2="57.1905" y2="95.8121" gradientUnits="userSpaceOnUse">
<stop stop-color="#E7E2CF"/>
<stop offset="0.32" stop-color="#F5A1C5"/>
<stop offset="0.66" stop-color="#065FC7"/>
<stop offset="1"/>
</linearGradient>
<linearGradient id="paint7_linear_0_1682" x1="125.154" y1="94.3396" x2="71.5476" y2="106.954" gradientUnits="userSpaceOnUse">
<stop stop-color="#E7E2CF"/>
<stop offset="0.32" stop-color="#F5A1C5"/>
<stop offset="0.66" stop-color="#065FC7"/>
<stop offset="1"/>
</linearGradient>
<linearGradient id="paint8_linear_0_1682" x1="114.761" y1="127.929" x2="81.8177" y2="135.682" gradientUnits="userSpaceOnUse">
<stop stop-color="#E7E2CF"/>
<stop offset="0.32" stop-color="#F5A1C5"/>
<stop offset="0.66" stop-color="#065FC7"/>
<stop offset="1"/>
</linearGradient>
<linearGradient id="paint9_linear_0_1682" x1="197.45" y1="60.5007" x2="176.25" y2="98.5037" gradientUnits="userSpaceOnUse">
<stop stop-color="#E7E2CF"/>
<stop offset="0.32" stop-color="#F5A1C5"/>
<stop offset="0.66" stop-color="#065FC7"/>
<stop offset="1" stop-color="#E7E2CF"/>
</linearGradient>
<linearGradient id="paint10_linear_0_1682" x1="201.253" y1="49.3425" x2="183.917" y2="121.327" gradientUnits="userSpaceOnUse">
<stop stop-color="#E7E2CF"/>
<stop offset="0.32" stop-color="#F5A1C5"/>
<stop offset="0.612988" stop-color="#065FC7"/>
<stop offset="0.984044" stop-color="#E7E2CF"/>
</linearGradient>
<linearGradient id="paint11_linear_0_1682" x1="163.109" y1="90.7902" x2="255.87" y2="49.3799" gradientUnits="userSpaceOnUse">
<stop offset="0.120353" stop-color="white"/>
<stop offset="0.32" stop-color="#F5A1C5"/>
<stop offset="0.66" stop-color="#065FC7"/>
<stop offset="1" stop-color="#E7E2CF"/>
</linearGradient>
<linearGradient id="paint12_linear_0_1682" x1="242.411" y1="53.6872" x2="238.164" y2="64.1365" gradientUnits="userSpaceOnUse">
<stop stop-color="#E7E2CF"/>
<stop offset="0.32" stop-color="#F5A1C5"/>
<stop offset="0.813074" stop-color="#065FC7"/>
</linearGradient>
</defs>
</svg>
