<svg width="2064" height="609" viewBox="0 0 2064 609" fill="none" xmlns="http://www.w3.org/2000/svg">
<path d="M585.956 339.78C585.956 312.667 591.509 288.657 602.616 267.75C614.049 246.843 629.402 230.673 648.676 219.24C668.276 207.48 689.836 201.6 713.356 201.6C734.589 201.6 753.046 205.847 768.726 214.34C784.732 222.507 797.472 232.797 806.946 245.21V206.01H863.296V476H806.946V435.82C797.472 448.56 784.569 459.177 768.236 467.67C751.902 476.163 733.282 480.41 712.376 480.41C689.182 480.41 667.949 474.53 648.676 462.77C629.402 450.683 614.049 434.023 602.616 412.79C591.509 391.23 585.956 366.893 585.956 339.78ZM806.946 340.76C806.946 322.14 803.026 305.97 795.186 292.25C787.672 278.53 777.709 268.077 765.296 260.89C752.882 253.703 739.489 250.11 725.116 250.11C710.742 250.11 697.349 253.703 684.936 260.89C672.522 267.75 662.396 278.04 654.556 291.76C647.042 305.153 643.286 321.16 643.286 339.78C643.286 358.4 647.042 374.733 654.556 388.78C662.396 402.827 672.522 413.607 684.936 421.12C697.676 428.307 711.069 431.9 725.116 431.9C739.489 431.9 752.882 428.307 765.296 421.12C777.709 413.933 787.672 403.48 795.186 389.76C803.026 375.713 806.946 359.38 806.946 340.76ZM1253.7 201.6C1274.93 201.6 1293.88 206.01 1310.54 214.83C1327.52 223.65 1340.75 236.717 1350.23 254.03C1360.03 271.343 1364.93 292.25 1364.93 316.75V476H1309.56V325.08C1309.56 300.907 1303.51 282.45 1291.43 269.71C1279.34 256.643 1262.84 250.11 1241.94 250.11C1221.03 250.11 1204.37 256.643 1191.96 269.71C1179.87 282.45 1173.83 300.907 1173.83 325.08V476H1118.46V325.08C1118.46 300.907 1112.41 282.45 1100.33 269.71C1088.24 256.643 1071.74 250.11 1050.84 250.11C1029.93 250.11 1013.27 256.643 1000.86 269.71C988.769 282.45 982.725 300.907 982.725 325.08V476H926.865V206.01H982.725V236.88C991.872 225.773 1003.47 217.117 1017.52 210.91C1031.56 204.703 1046.59 201.6 1062.6 201.6C1084.16 201.6 1103.43 206.173 1120.42 215.32C1137.4 224.467 1150.47 237.697 1159.62 255.01C1167.78 238.677 1180.52 225.773 1197.84 216.3C1215.15 206.5 1233.77 201.6 1253.7 201.6ZM1543.32 480.41C1517.84 480.41 1494.81 474.693 1474.23 463.26C1453.65 451.5 1437.48 435.167 1425.72 414.26C1413.96 393.027 1408.08 368.527 1408.08 340.76C1408.08 313.32 1414.12 288.983 1426.21 267.75C1438.29 246.517 1454.79 230.183 1475.7 218.75C1496.6 207.317 1519.96 201.6 1545.77 201.6C1571.57 201.6 1594.93 207.317 1615.84 218.75C1636.74 230.183 1653.24 246.517 1665.33 267.75C1677.41 288.983 1683.46 313.32 1683.46 340.76C1683.46 368.2 1677.25 392.537 1664.84 413.77C1652.42 435.003 1635.44 451.5 1613.88 463.26C1592.64 474.693 1569.12 480.41 1543.32 480.41ZM1543.32 431.9C1557.69 431.9 1571.08 428.47 1583.5 421.61C1596.24 414.75 1606.53 404.46 1614.37 390.74C1622.21 377.02 1626.13 360.36 1626.13 340.76C1626.13 321.16 1622.37 304.663 1614.86 291.27C1607.34 277.55 1597.38 267.26 1584.97 260.4C1572.55 253.54 1559.16 250.11 1544.79 250.11C1530.41 250.11 1517.02 253.54 1504.61 260.4C1492.52 267.26 1482.88 277.55 1475.7 291.27C1468.51 304.663 1464.92 321.16 1464.92 340.76C1464.92 369.833 1472.27 392.373 1486.97 408.38C1501.99 424.06 1520.78 431.9 1543.32 431.9ZM1784.74 245.21C1792.9 231.49 1803.68 220.873 1817.08 213.36C1830.8 205.52 1846.97 201.6 1865.59 201.6V259.42H1851.38C1829.49 259.42 1812.83 264.973 1801.4 276.08C1790.29 287.187 1784.74 306.46 1784.74 333.9V476H1728.88V206.01H1784.74V245.21ZM1935.55 170.24C1925.43 170.24 1916.93 166.81 1910.07 159.95C1903.21 153.09 1899.78 144.597 1899.78 134.47C1899.78 124.343 1903.21 115.85 1910.07 108.99C1916.93 102.13 1925.43 98.7 1935.55 98.7C1945.35 98.7 1953.68 102.13 1960.54 108.99C1967.4 115.85 1970.83 124.343 1970.83 134.47C1970.83 144.597 1967.4 153.09 1960.54 159.95C1953.68 166.81 1945.35 170.24 1935.55 170.24ZM1962.99 206.01V476H1907.13V206.01H1962.99Z" fill="#1C2745"/>
<g filter="url(#filter0_d)">
<path d="M474.66 265.402C474.66 299.399 461.373 331.26 437.425 355.238L410.032 382.665L409.868 382.83L279.136 513.724L279.3 513.56L297.179 495.494C304.397 488.268 310.138 479.728 314.238 470.531C316.043 466.425 317.519 462.155 318.503 457.885C318.667 457.228 318.831 456.571 318.995 455.75C319.159 455.257 319.159 454.928 319.323 454.436C319.651 453.122 319.815 451.808 319.979 450.494C320.143 449.673 320.307 448.852 320.307 448.031V447.866C320.307 447.702 320.307 447.702 320.307 447.538C320.472 446.881 320.472 446.06 320.636 445.403V445.239C320.636 444.746 320.8 444.089 320.8 443.432C320.8 443.268 320.8 443.104 320.8 443.104C320.8 442.939 320.8 442.775 320.8 442.611C320.8 442.447 320.8 442.282 320.8 442.118C320.8 441.625 320.8 440.969 320.8 440.476C320.8 440.312 320.8 440.312 320.8 440.147V439.983C320.8 439.162 320.8 438.341 320.8 437.52C320.8 436.698 320.8 436.042 320.8 435.22V434.892C320.8 434.399 320.8 433.742 320.8 433.085V432.428C320.8 431.771 320.8 431.115 320.636 430.458C320.636 430.293 320.636 430.293 320.636 430.129C320.636 429.801 320.636 429.472 320.472 429.308C320.472 429.144 320.472 429.144 320.472 428.979C320.472 428.487 320.307 427.994 320.307 427.666C320.307 427.173 320.143 426.516 320.143 426.023C320.143 425.531 319.979 425.202 319.979 424.709C319.979 424.545 319.979 424.545 319.979 424.381C319.979 423.888 319.815 423.56 319.815 423.067C319.815 422.903 319.815 422.739 319.651 422.574C319.487 421.917 319.323 421.096 319.159 420.439C318.995 419.782 318.831 419.29 318.831 418.633C318.831 418.633 318.831 418.468 318.831 418.304C318.831 418.14 318.831 417.976 318.667 417.976C318.339 416.826 318.175 415.841 317.847 414.691C317.519 413.706 317.191 412.72 316.863 411.735C316.207 409.764 315.551 407.793 314.73 405.987L401.502 319.107C415.937 304.654 423.974 285.439 423.974 264.909C423.974 244.38 415.937 225.165 401.502 210.712C387.068 196.26 367.876 188.376 347.372 188.376C326.869 188.376 307.677 196.26 293.243 210.712L282.909 221.059L278.972 217.117L275.035 213.011L256.008 193.303L252.071 189.197L248.134 185.092L257.812 175.402C281.76 151.424 313.582 138.121 347.536 138.121C348.029 138.121 348.357 138.121 348.849 138.121C381.327 138.449 413.313 151.752 436.441 174.416C461.209 198.723 474.66 230.913 474.66 265.402Z" fill="url(#paint0_linear)"/>
<path d="M474.66 265.402C474.66 299.399 461.373 331.26 437.425 355.238L410.032 382.665L409.868 382.83L279.136 513.724L279.3 513.56L297.179 495.494C304.397 488.268 310.138 479.728 314.238 470.531C316.043 466.425 317.519 462.155 318.503 457.885C318.667 457.228 318.831 456.571 318.995 455.75C319.159 455.257 319.159 454.928 319.323 454.436C319.651 453.122 319.815 451.808 319.979 450.494C320.143 449.673 320.307 448.852 320.307 448.031V447.866C320.307 447.702 320.307 447.702 320.307 447.538C320.472 446.881 320.472 446.06 320.636 445.403V445.239C320.636 444.746 320.8 444.089 320.8 443.432C320.8 443.268 320.8 443.104 320.8 443.104C320.8 442.939 320.8 442.775 320.8 442.611C320.8 442.447 320.8 442.282 320.8 442.118C320.8 441.625 320.8 440.969 320.8 440.476C320.8 440.312 320.8 440.312 320.8 440.147V439.983C320.8 439.162 320.8 438.341 320.8 437.52C320.8 436.698 320.8 436.042 320.8 435.22V434.892C320.8 434.399 320.8 433.742 320.8 433.085V432.428C320.8 431.771 320.8 431.115 320.636 430.458C320.636 430.293 320.636 430.293 320.636 430.129C320.636 429.801 320.636 429.472 320.472 429.308C320.472 429.144 320.472 429.144 320.472 428.979C320.472 428.487 320.307 427.994 320.307 427.666C320.307 427.173 320.143 426.516 320.143 426.023C320.143 425.531 319.979 425.202 319.979 424.709C319.979 424.545 319.979 424.545 319.979 424.381C319.979 423.888 319.815 423.56 319.815 423.067C319.815 422.903 319.815 422.739 319.651 422.574C319.487 421.917 319.323 421.096 319.159 420.439C318.995 419.782 318.831 419.29 318.831 418.633C318.831 418.633 318.831 418.468 318.831 418.304C318.831 418.14 318.831 417.976 318.667 417.976C318.339 416.826 318.175 415.841 317.847 414.691C317.519 413.706 317.191 412.72 316.863 411.735C316.207 409.764 315.551 407.793 314.73 405.987L401.502 319.107C415.937 304.654 423.974 285.439 423.974 264.909C423.974 244.38 415.937 225.165 401.502 210.712C387.068 196.26 367.876 188.376 347.372 188.376C326.869 188.376 307.677 196.26 293.243 210.712L282.909 221.059L278.972 217.117L275.035 213.011L256.008 193.303L252.071 189.197L248.134 185.092L257.812 175.402C281.76 151.424 313.582 138.121 347.536 138.121C348.029 138.121 348.357 138.121 348.849 138.121C381.327 138.449 413.313 151.752 436.441 174.416C461.209 198.723 474.66 230.913 474.66 265.402Z" stroke="white"/>
</g>
<g filter="url(#filter1_d)">
<path d="M233.299 415.462C227.363 421.417 224.066 429.357 224.066 437.794C224.066 445.568 226.869 452.847 231.98 458.636C231.815 458.471 231.65 458.305 231.485 458.14L219.45 446.064L212.855 439.448L188.455 414.8L185.982 412.319L184.003 410.334L179.717 406.033C183.838 396.108 189.774 387.01 197.522 379.401L211.866 365.009L215.823 368.979L219.78 372.949L239.729 392.965L243.685 396.935L247.642 400.905L233.299 415.462Z" fill="url(#paint1_linear)"/>
<path d="M233.299 415.462C227.363 421.417 224.066 429.357 224.066 437.794C224.066 445.568 226.869 452.847 231.98 458.636C231.815 458.471 231.65 458.305 231.485 458.14L219.45 446.064L212.855 439.448L188.455 414.8L185.982 412.319L184.003 410.334L179.717 406.033C183.838 396.108 189.774 387.01 197.522 379.401L211.866 365.009L215.823 368.979L219.78 372.949L239.729 392.965L243.685 396.935L247.642 400.905L233.299 415.462Z" stroke="white"/>
</g>
<g filter="url(#filter2_d)">
<path d="M214.597 360.117L217.418 357.299L253.15 394.869L250.329 397.687L214.597 360.117Z" fill="#7709FC"/>
</g>
<g filter="url(#filter3_d)">
<path d="M233.299 415.095C227.363 421.05 224.066 428.99 224.066 437.426C224.066 445.201 226.869 452.479 231.98 458.269C231.815 458.104 231.65 457.938 231.485 457.773L219.45 445.697L212.855 439.081L188.455 414.433L185.982 411.952L184.003 409.967L179.717 405.666C183.838 395.741 189.774 386.643 197.522 379.034L211.866 364.642L215.823 368.612L219.78 372.582L239.729 392.598L243.685 396.568L247.642 400.538L233.299 415.095Z" fill="url(#paint2_linear)"/>
<path d="M233.299 415.095C227.363 421.05 224.066 428.99 224.066 437.426C224.066 445.201 226.869 452.479 231.98 458.269C231.815 458.104 231.65 457.938 231.485 457.773L219.45 445.697L212.855 439.081L188.455 414.433L185.982 411.952L184.003 409.967L179.717 405.666C183.838 395.741 189.774 386.643 197.522 379.034L211.866 364.642L215.823 368.612L219.78 372.582L239.729 392.598L243.685 396.568L247.642 400.538L233.299 415.095Z" stroke="white"/>
</g>
<g filter="url(#filter4_d)">
<path d="M320.749 437.555C320.749 438.382 320.749 439.208 320.749 440.034V440.199C320.749 440.364 320.749 440.364 320.749 440.53C320.749 441.025 320.749 441.686 320.749 442.182C320.749 442.347 320.749 442.512 320.749 442.678C320.749 442.843 320.749 443.008 320.749 443.173C320.749 443.339 320.749 443.504 320.749 443.504C320.749 444.165 320.586 444.66 320.586 445.321V445.487C320.586 446.148 320.422 446.974 320.259 447.635C320.259 447.8 320.259 447.8 320.259 447.965V448.13C320.096 448.957 320.096 449.783 319.933 450.609C319.77 451.931 319.443 453.253 319.28 454.575C319.117 455.07 319.117 455.401 318.954 455.896C318.791 456.557 318.627 457.218 318.464 458.044C317.322 462.341 316.016 466.637 314.221 470.767C310.305 480.021 304.594 488.447 297.25 495.883L279.463 514.059L279.3 514.224L265.919 527.773C261.023 532.73 254.659 535.374 247.805 535.374C241.278 535.374 234.914 532.895 230.181 528.269C230.181 528.269 230.181 528.269 230.018 528.104L206.03 503.814L205.867 503.649C205.867 503.649 219.411 503.153 233.445 488.943C233.772 488.778 233.935 488.447 234.098 488.282L239.973 482.334L243.563 478.699C243.563 478.699 243.563 478.864 243.399 478.864C243.563 478.699 243.563 478.533 243.726 478.533L243.889 478.368L244.052 478.203C244.215 478.038 244.215 478.038 244.379 477.872C244.379 477.872 244.379 477.872 244.215 477.872C244.215 477.872 244.215 477.872 244.052 478.038L247.642 474.403L261.839 460.027C273.915 447.8 273.915 427.807 261.839 415.579L247.642 401.204L243.726 397.238L239.809 393.273L220.064 373.279L216.148 369.314L212.231 365.348L198.034 350.973C182.695 335.441 174.209 314.787 174.209 292.811C174.209 270.835 182.695 250.18 198.034 234.648L212.884 219.612L247.805 256.129L233.608 270.504C221.533 282.731 221.533 302.725 233.608 314.952L247.805 329.327L251.722 333.293L255.638 337.259L275.384 357.252L279.3 361.217L283.216 365.183L297.413 379.558C304.92 387.159 310.958 396.247 315.037 406.161C315.853 408.144 316.506 409.961 317.159 411.944C317.485 412.936 317.811 413.927 318.138 414.918C318.464 416.075 318.791 417.066 318.954 418.223C318.954 418.388 318.954 418.554 319.117 418.554C319.117 418.554 319.117 418.719 319.117 418.884C319.28 419.545 319.443 420.041 319.443 420.702C319.607 421.363 319.77 422.189 319.933 422.85C319.933 423.015 319.933 423.18 320.096 423.345C320.096 423.841 320.259 424.171 320.259 424.667C320.259 424.832 320.259 424.832 320.259 424.998C320.259 425.493 320.422 425.824 320.422 426.32C320.422 426.815 320.586 427.476 320.586 427.972C320.586 428.468 320.749 428.963 320.749 429.294C320.749 429.459 320.749 429.459 320.749 429.624C320.749 429.955 320.749 430.285 320.912 430.45C320.912 430.616 320.912 430.616 320.912 430.781C320.912 431.442 321.075 432.103 321.075 432.764V433.425C321.075 433.92 321.075 434.581 321.075 435.242V435.573C320.749 436.068 320.749 436.729 320.749 437.555Z" fill="url(#paint3_linear)"/>
<path d="M320.749 437.555C320.749 438.382 320.749 439.208 320.749 440.034V440.199C320.749 440.364 320.749 440.364 320.749 440.53C320.749 441.025 320.749 441.686 320.749 442.182C320.749 442.347 320.749 442.512 320.749 442.678C320.749 442.843 320.749 443.008 320.749 443.173C320.749 443.339 320.749 443.504 320.749 443.504C320.749 444.165 320.586 444.66 320.586 445.321V445.487C320.586 446.148 320.422 446.974 320.259 447.635C320.259 447.8 320.259 447.8 320.259 447.965V448.13C320.096 448.957 320.096 449.783 319.933 450.609C319.77 451.931 319.443 453.253 319.28 454.575C319.117 455.07 319.117 455.401 318.954 455.896C318.791 456.557 318.627 457.218 318.464 458.044C317.322 462.341 316.016 466.637 314.221 470.767C310.305 480.021 304.594 488.447 297.25 495.883L279.463 514.059L279.3 514.224L265.919 527.773C261.023 532.73 254.659 535.374 247.805 535.374C241.278 535.374 234.914 532.895 230.181 528.269C230.181 528.269 230.181 528.269 230.018 528.104L206.03 503.814L205.867 503.649C205.867 503.649 219.411 503.153 233.445 488.943C233.772 488.778 233.935 488.447 234.098 488.282L239.973 482.334L243.563 478.699C243.563 478.699 243.563 478.864 243.399 478.864C243.563 478.699 243.563 478.533 243.726 478.533L243.889 478.368L244.052 478.203C244.215 478.038 244.215 478.038 244.379 477.872C244.379 477.872 244.379 477.872 244.215 477.872C244.215 477.872 244.215 477.872 244.052 478.038L247.642 474.403L261.839 460.027C273.915 447.8 273.915 427.807 261.839 415.579L247.642 401.204L243.726 397.238L239.809 393.273L220.064 373.279L216.148 369.314L212.231 365.348L198.034 350.973C182.695 335.441 174.209 314.787 174.209 292.811C174.209 270.835 182.695 250.18 198.034 234.648L212.884 219.612L247.805 256.129L233.608 270.504C221.533 282.731 221.533 302.725 233.608 314.952L247.805 329.327L251.722 333.293L255.638 337.259L275.384 357.252L279.3 361.217L283.216 365.183L297.413 379.558C304.92 387.159 310.958 396.247 315.037 406.161C315.853 408.144 316.506 409.961 317.159 411.944C317.485 412.936 317.811 413.927 318.138 414.918C318.464 416.075 318.791 417.066 318.954 418.223C318.954 418.388 318.954 418.554 319.117 418.554C319.117 418.554 319.117 418.719 319.117 418.884C319.28 419.545 319.443 420.041 319.443 420.702C319.607 421.363 319.77 422.189 319.933 422.85C319.933 423.015 319.933 423.18 320.096 423.345C320.096 423.841 320.259 424.171 320.259 424.667C320.259 424.832 320.259 424.832 320.259 424.998C320.259 425.493 320.422 425.824 320.422 426.32C320.422 426.815 320.586 427.476 320.586 427.972C320.586 428.468 320.749 428.963 320.749 429.294C320.749 429.459 320.749 429.459 320.749 429.624C320.749 429.955 320.749 430.285 320.912 430.45C320.912 430.616 320.912 430.616 320.912 430.781C320.912 431.442 321.075 432.103 321.075 432.764V433.425C321.075 433.92 321.075 434.581 321.075 435.242V435.573C320.749 436.068 320.749 436.729 320.749 437.555Z" stroke="white"/>
</g>
<g filter="url(#filter5_d)">
<path d="M216.433 215.087L219.254 212.269L254.985 249.839L252.165 252.657L216.433 215.087Z" fill="#7709FC"/>
</g>
<g filter="url(#filter6_d)">
<path d="M280.687 225.973L277.866 228.791L242.135 191.221L244.956 188.403L280.687 225.973Z" fill="#7709FC"/>
</g>
<g filter="url(#filter7_d)">
<path d="M214.597 449.944L211.776 452.762L176.045 415.191L178.866 412.374L214.597 449.944Z" fill="#7709FC"/>
</g>
<g filter="url(#filter8_d)">
<path d="M322.911 293.767C322.911 315.714 314.324 336.342 298.8 351.853L284.433 366.21L280.47 362.249L276.506 358.289L256.524 338.322L252.561 334.361L248.597 330.401L262.965 316.044C275.185 303.833 275.185 283.866 262.965 271.655L255.533 264.229L248.762 257.133L221.349 228.75L217.385 224.625V224.459L213.587 220.664L203.679 210.433C189.146 195.911 169.66 187.826 148.852 187.826C127.879 187.826 108.392 195.746 93.6944 210.433C63.4735 240.631 63.4735 289.807 93.6944 320.17L180.559 406.969L184.853 411.26L186.834 413.24L189.311 415.715L213.752 440.303L220.358 446.904L232.413 458.95L233.074 459.61V459.775L233.239 459.94L233.569 460.27L233.735 460.435L233.9 460.6L234.065 460.765L248.267 474.957L244.634 478.587C244.634 478.587 244.634 478.587 244.799 478.422C244.799 478.422 244.799 478.422 244.964 478.422C244.799 478.587 244.799 478.587 244.634 478.752L244.469 478.917L244.304 479.082C244.138 479.247 244.138 479.247 243.973 479.412C243.973 479.412 243.973 479.247 244.138 479.247L240.505 482.878L234.56 488.818C234.23 489.148 234.065 489.313 233.9 489.478C219.697 503.67 205.991 504.165 205.991 504.165L197.899 496.079L176.761 474.957L57.5284 355.814C7.49052 305.813 7.49052 224.294 57.5284 174.294C81.9694 150.366 114.337 137 148.521 137C182.871 137 215.074 150.366 239.349 174.624L239.514 174.789L249.258 184.69L253.221 188.816L257.185 192.941L276.836 213.238L280.8 217.364L284.763 221.324L292.029 228.915L298.965 235.846C314.324 251.192 322.911 271.82 322.911 293.767Z" fill="url(#paint4_linear)"/>
<path d="M322.911 293.767C322.911 315.714 314.324 336.342 298.8 351.853L284.433 366.21L280.47 362.249L276.506 358.289L256.524 338.322L252.561 334.361L248.597 330.401L262.965 316.044C275.185 303.833 275.185 283.866 262.965 271.655L255.533 264.229L248.762 257.133L221.349 228.75L217.385 224.625V224.459L213.587 220.664L203.679 210.433C189.146 195.911 169.66 187.826 148.852 187.826C127.879 187.826 108.392 195.746 93.6944 210.433C63.4735 240.631 63.4735 289.807 93.6944 320.17L180.559 406.969L184.853 411.26L186.834 413.24L189.311 415.715L213.752 440.303L220.358 446.904L232.413 458.95L233.074 459.61V459.775L233.239 459.94L233.569 460.27L233.735 460.435L233.9 460.6L234.065 460.765L248.267 474.957L244.634 478.587C244.634 478.587 244.634 478.587 244.799 478.422C244.799 478.422 244.799 478.422 244.964 478.422C244.799 478.587 244.799 478.587 244.634 478.752L244.469 478.917L244.304 479.082C244.138 479.247 244.138 479.247 243.973 479.412C243.973 479.412 243.973 479.247 244.138 479.247L240.505 482.878L234.56 488.818C234.23 489.148 234.065 489.313 233.9 489.478C219.697 503.67 205.991 504.165 205.991 504.165L197.899 496.079L176.761 474.957L57.5284 355.814C7.49052 305.813 7.49052 224.294 57.5284 174.294C81.9694 150.366 114.337 137 148.521 137C182.871 137 215.074 150.366 239.349 174.624L239.514 174.789L249.258 184.69L253.221 188.816L257.185 192.941L276.836 213.238L280.8 217.364L284.763 221.324L292.029 228.915L298.965 235.846C314.324 251.192 322.911 271.82 322.911 293.767Z" stroke="white"/>
</g>
<g filter="url(#filter9_d)">
<path d="M283.441 365.56L281.605 367.396L246.724 332.515L248.56 330.68L283.441 365.56Z" fill="#D554A8"/>
</g>
<path d="M322.911 293.767C322.911 315.714 314.324 336.342 298.8 351.853L284.433 366.21L280.47 362.249L276.506 358.289L256.524 338.322L252.561 334.361L248.597 330.401L262.965 316.044C275.185 303.833 275.185 283.866 262.965 271.655L255.533 264.229L248.762 257.133L221.349 228.75L217.385 224.625V224.459L213.587 220.664L203.679 210.433C189.146 195.911 169.66 187.826 148.852 187.826C127.879 187.826 108.392 195.746 93.6944 210.433C63.4735 240.631 63.4735 289.807 93.6944 320.17L180.559 406.969L184.853 411.26L186.834 413.24L189.311 415.715L213.752 440.303L220.358 446.904L232.413 458.95L233.074 459.61V459.775L233.239 459.94L233.569 460.27L233.735 460.435L233.9 460.6L234.065 460.765L248.267 474.957L244.634 478.587C244.634 478.587 244.634 478.587 244.799 478.422C244.799 478.422 244.799 478.422 244.964 478.422C244.799 478.587 244.799 478.587 244.634 478.752L244.469 478.917L244.304 479.082C244.138 479.247 244.138 479.247 243.973 479.412C243.973 479.412 243.973 479.247 244.138 479.247L240.505 482.878L234.56 488.818C234.23 489.148 234.065 489.313 233.9 489.478C219.697 503.67 205.991 504.165 205.991 504.165L197.899 496.079L176.761 474.957L57.5284 355.814C7.49052 305.813 7.49052 224.294 57.5284 174.294C81.9694 150.366 114.337 137 148.521 137C182.871 137 215.074 150.366 239.349 174.624L239.514 174.789L249.258 184.69L253.221 188.816L257.185 192.941L276.836 213.238L280.8 217.364L284.763 221.324L292.029 228.915L298.965 235.846C314.324 251.192 322.911 271.82 322.911 293.767Z" fill="url(#paint5_linear)"/>
<path d="M318.913 435.72C318.913 436.546 318.913 437.372 318.913 438.198V438.363C318.913 438.529 318.913 438.529 318.913 438.694C318.913 439.19 318.913 439.851 318.913 440.346C318.913 440.512 318.913 440.677 318.913 440.842C318.913 441.007 318.913 441.172 318.913 441.338C318.913 441.503 318.913 441.668 318.913 441.668C318.913 442.329 318.75 442.825 318.75 443.486V443.651C318.75 444.312 318.587 445.138 318.423 445.799C318.423 445.964 318.423 445.964 318.423 446.129V446.295C318.26 447.121 318.26 447.947 318.097 448.773C317.934 450.095 317.607 451.417 317.444 452.739C317.281 453.235 317.281 453.565 317.118 454.061C316.955 454.722 316.792 455.383 316.628 456.209C315.486 460.505 314.181 464.801 312.386 468.932C308.469 478.185 302.758 486.612 295.414 494.047L277.627 512.223L277.464 512.388L264.083 525.937C259.187 530.894 252.823 533.538 245.97 533.538C239.442 533.538 233.078 531.06 228.346 526.433C228.346 526.433 228.346 526.433 228.182 526.268L204.194 501.978L204.031 501.813C204.031 501.813 217.575 501.318 231.609 487.107C231.936 486.942 232.099 486.612 232.262 486.446L238.137 480.498L241.727 476.863C241.727 476.863 241.727 477.028 241.564 477.028C241.727 476.863 241.727 476.698 241.89 476.698L242.053 476.532L242.216 476.367C242.38 476.202 242.38 476.202 242.543 476.037C242.543 476.037 242.543 476.037 242.379 476.037C242.379 476.037 242.38 476.037 242.216 476.202L245.806 472.567L260.003 458.192C272.079 445.964 272.079 425.971 260.003 413.744L245.806 399.368L241.89 395.403L237.974 391.437L218.228 371.444L214.312 367.478L210.395 363.513L196.198 349.137C180.859 333.605 172.373 312.951 172.373 290.975C172.373 268.999 180.859 248.345 196.198 232.813L211.048 217.776L245.97 254.293L231.773 268.668C219.697 280.896 219.697 300.889 231.773 313.116L245.97 327.492L249.886 331.457L253.802 335.423L273.548 355.416L277.464 359.382L281.381 363.347L295.578 377.723C303.084 385.323 309.122 394.411 313.202 404.325C314.017 406.308 314.67 408.126 315.323 410.108C315.649 411.1 315.976 412.091 316.302 413.083C316.628 414.239 316.955 415.231 317.118 416.387C317.118 416.553 317.118 416.718 317.281 416.718C317.281 416.718 317.281 416.883 317.281 417.048C317.444 417.709 317.607 418.205 317.607 418.866C317.771 419.527 317.934 420.353 318.097 421.014C318.097 421.179 318.097 421.344 318.26 421.51C318.26 422.005 318.423 422.336 318.423 422.831C318.423 422.997 318.423 422.997 318.423 423.162C318.423 423.658 318.587 423.988 318.587 424.484C318.587 424.98 318.75 425.64 318.75 426.136C318.75 426.632 318.913 427.128 318.913 427.458C318.913 427.623 318.913 427.623 318.913 427.789C318.913 428.119 318.913 428.449 319.076 428.615C319.076 428.78 319.076 428.78 319.076 428.945C319.076 429.606 319.239 430.267 319.239 430.928V431.589C319.239 432.085 319.239 432.746 319.239 433.406V433.737C318.913 434.233 318.913 434.894 318.913 435.72Z" fill="url(#paint6_linear)"/>
<defs>
<filter id="filter0_d" x="228.134" y="122.121" width="266.525" height="415.604" filterUnits="userSpaceOnUse" color-interpolation-filters="sRGB">
<feFlood flood-opacity="0" result="BackgroundImageFix"/>
<feColorMatrix in="SourceAlpha" type="matrix" values="0 0 0 0 0 0 0 0 0 0 0 0 0 0 0 0 0 0 127 0"/>
<feOffset dy="4"/>
<feGaussianBlur stdDeviation="10"/>
<feColorMatrix type="matrix" values="0 0 0 0 1 0 0 0 0 0.466667 0 0 0 0 0.597484 0 0 0 0.25 0"/>
<feBlend mode="normal" in2="BackgroundImageFix" result="effect1_dropShadow"/>
<feBlend mode="normal" in="SourceGraphic" in2="effect1_dropShadow" result="shape"/>
</filter>
<filter id="filter1_d" x="159.717" y="349.009" width="107.925" height="133.627" filterUnits="userSpaceOnUse" color-interpolation-filters="sRGB">
<feFlood flood-opacity="0" result="BackgroundImageFix"/>
<feColorMatrix in="SourceAlpha" type="matrix" values="0 0 0 0 0 0 0 0 0 0 0 0 0 0 0 0 0 0 127 0"/>
<feOffset dy="4"/>
<feGaussianBlur stdDeviation="10"/>
<feColorMatrix type="matrix" values="0 0 0 0 1 0 0 0 0 0.466667 0 0 0 0 0.597484 0 0 0 0.25 0"/>
<feBlend mode="normal" in2="BackgroundImageFix" result="effect1_dropShadow"/>
<feBlend mode="normal" in="SourceGraphic" in2="effect1_dropShadow" result="shape"/>
</filter>
<filter id="filter2_d" x="204.597" y="351.299" width="54.5523" height="56.3881" filterUnits="userSpaceOnUse" color-interpolation-filters="sRGB">
<feFlood flood-opacity="0" result="BackgroundImageFix"/>
<feColorMatrix in="SourceAlpha" type="matrix" values="0 0 0 0 0 0 0 0 0 0 0 0 0 0 0 0 0 0 127 0"/>
<feOffset dx="-2" dy="2"/>
<feGaussianBlur stdDeviation="4"/>
<feColorMatrix type="matrix" values="0 0 0 0 0 0 0 0 0 0 0 0 0 0 0 0 0 0 1 0"/>
<feBlend mode="normal" in2="BackgroundImageFix" result="effect1_dropShadow"/>
<feBlend mode="normal" in="SourceGraphic" in2="effect1_dropShadow" result="shape"/>
</filter>
<filter id="filter3_d" x="159.717" y="348.642" width="107.925" height="133.627" filterUnits="userSpaceOnUse" color-interpolation-filters="sRGB">
<feFlood flood-opacity="0" result="BackgroundImageFix"/>
<feColorMatrix in="SourceAlpha" type="matrix" values="0 0 0 0 0 0 0 0 0 0 0 0 0 0 0 0 0 0 127 0"/>
<feOffset dy="4"/>
<feGaussianBlur stdDeviation="10"/>
<feColorMatrix type="matrix" values="0 0 0 0 1 0 0 0 0 0.466667 0 0 0 0 0.597484 0 0 0 0.25 0"/>
<feBlend mode="normal" in2="BackgroundImageFix" result="effect1_dropShadow"/>
<feBlend mode="normal" in="SourceGraphic" in2="effect1_dropShadow" result="shape"/>
</filter>
<filter id="filter4_d" x="154.209" y="203.612" width="186.866" height="355.762" filterUnits="userSpaceOnUse" color-interpolation-filters="sRGB">
<feFlood flood-opacity="0" result="BackgroundImageFix"/>
<feColorMatrix in="SourceAlpha" type="matrix" values="0 0 0 0 0 0 0 0 0 0 0 0 0 0 0 0 0 0 127 0"/>
<feOffset dy="4"/>
<feGaussianBlur stdDeviation="10"/>
<feColorMatrix type="matrix" values="0 0 0 0 1 0 0 0 0 0.466667 0 0 0 0 0.597484 0 0 0 0.25 0"/>
<feBlend mode="normal" in2="BackgroundImageFix" result="effect1_dropShadow"/>
<feBlend mode="normal" in="SourceGraphic" in2="effect1_dropShadow" result="shape"/>
</filter>
<filter id="filter5_d" x="206.433" y="206.269" width="54.5523" height="56.3881" filterUnits="userSpaceOnUse" color-interpolation-filters="sRGB">
<feFlood flood-opacity="0" result="BackgroundImageFix"/>
<feColorMatrix in="SourceAlpha" type="matrix" values="0 0 0 0 0 0 0 0 0 0 0 0 0 0 0 0 0 0 127 0"/>
<feOffset dx="-2" dy="2"/>
<feGaussianBlur stdDeviation="4"/>
<feColorMatrix type="matrix" values="0 0 0 0 0 0 0 0 0 0 0 0 0 0 0 0 0 0 1 0"/>
<feBlend mode="normal" in2="BackgroundImageFix" result="effect1_dropShadow"/>
<feBlend mode="normal" in="SourceGraphic" in2="effect1_dropShadow" result="shape"/>
</filter>
<filter id="filter6_d" x="236.135" y="178.403" width="54.5523" height="56.3881" filterUnits="userSpaceOnUse" color-interpolation-filters="sRGB">
<feFlood flood-opacity="0" result="BackgroundImageFix"/>
<feColorMatrix in="SourceAlpha" type="matrix" values="0 0 0 0 0 0 0 0 0 0 0 0 0 0 0 0 0 0 127 0"/>
<feOffset dx="2" dy="-2"/>
<feGaussianBlur stdDeviation="4"/>
<feColorMatrix type="matrix" values="0 0 0 0 0 0 0 0 0 0 0 0 0 0 0 0 0 0 1 0"/>
<feBlend mode="normal" in2="BackgroundImageFix" result="effect1_dropShadow"/>
<feBlend mode="normal" in="SourceGraphic" in2="effect1_dropShadow" result="shape"/>
</filter>
<filter id="filter7_d" x="170.045" y="402.374" width="54.5523" height="56.3881" filterUnits="userSpaceOnUse" color-interpolation-filters="sRGB">
<feFlood flood-opacity="0" result="BackgroundImageFix"/>
<feColorMatrix in="SourceAlpha" type="matrix" values="0 0 0 0 0 0 0 0 0 0 0 0 0 0 0 0 0 0 127 0"/>
<feOffset dx="2" dy="-2"/>
<feGaussianBlur stdDeviation="4"/>
<feColorMatrix type="matrix" values="0 0 0 0 0 0 0 0 0 0 0 0 0 0 0 0 0 0 0.8 0"/>
<feBlend mode="normal" in2="BackgroundImageFix" result="effect1_dropShadow"/>
<feBlend mode="normal" in="SourceGraphic" in2="effect1_dropShadow" result="shape"/>
</filter>
<filter id="filter8_d" x="0" y="121" width="342.911" height="407.165" filterUnits="userSpaceOnUse" color-interpolation-filters="sRGB">
<feFlood flood-opacity="0" result="BackgroundImageFix"/>
<feColorMatrix in="SourceAlpha" type="matrix" values="0 0 0 0 0 0 0 0 0 0 0 0 0 0 0 0 0 0 127 0"/>
<feOffset dy="4"/>
<feGaussianBlur stdDeviation="10"/>
<feColorMatrix type="matrix" values="0 0 0 0 1 0 0 0 0 0.466667 0 0 0 0 0.597484 0 0 0 0.25 0"/>
<feBlend mode="normal" in2="BackgroundImageFix" result="effect1_dropShadow"/>
<feBlend mode="normal" in="SourceGraphic" in2="effect1_dropShadow" result="shape"/>
</filter>
<filter id="filter9_d" x="242.724" y="320.679" width="52.7165" height="52.7165" filterUnits="userSpaceOnUse" color-interpolation-filters="sRGB">
<feFlood flood-opacity="0" result="BackgroundImageFix"/>
<feColorMatrix in="SourceAlpha" type="matrix" values="0 0 0 0 0 0 0 0 0 0 0 0 0 0 0 0 0 0 127 0"/>
<feOffset dx="4" dy="-2"/>
<feGaussianBlur stdDeviation="4"/>
<feColorMatrix type="matrix" values="0 0 0 0 0 0 0 0 0 0 0 0 0 0 0 0 0 0 0.6 0"/>
<feBlend mode="normal" in2="BackgroundImageFix" result="effect1_dropShadow"/>
<feBlend mode="normal" in="SourceGraphic" in2="effect1_dropShadow" result="shape"/>
</filter>
<linearGradient id="paint0_linear" x1="508.329" y1="469.284" x2="218.736" y2="429.586" gradientUnits="userSpaceOnUse">
<stop offset="0.00134342" stop-color="#7305FF"/>
<stop offset="1" stop-color="#FF7094"/>
</linearGradient>
<linearGradient id="paint1_linear" x1="179.717" y1="477.545" x2="293.678" y2="348.585" gradientUnits="userSpaceOnUse">
<stop offset="0.00134342" stop-color="#7305FF"/>
<stop offset="0.817708" stop-color="#AA2FD6"/>
</linearGradient>
<linearGradient id="paint2_linear" x1="42.9478" y1="652.499" x2="-40.7366" y2="635.808" gradientUnits="userSpaceOnUse">
<stop offset="0.00134342" stop-color="#7305FF"/>
<stop offset="0.817708" stop-color="#D852B2"/>
</linearGradient>
<linearGradient id="paint3_linear" x1="367.889" y1="663.882" x2="522.238" y2="407.117" gradientUnits="userSpaceOnUse">
<stop offset="0.00134342" stop-color="#7305FF"/>
<stop offset="0.998396" stop-color="#FF7094"/>
</linearGradient>
<linearGradient id="paint4_linear" x1="114.545" y1="598.71" x2="255.151" y2="703.091" gradientUnits="userSpaceOnUse">
<stop offset="0.00134342" stop-color="#7305FF"/>
<stop offset="1" stop-color="#FF7094"/>
</linearGradient>
<linearGradient id="paint5_linear" x1="114.545" y1="598.71" x2="255.151" y2="703.091" gradientUnits="userSpaceOnUse">
<stop offset="0.00134342" stop-color="#7305FF"/>
<stop offset="1" stop-color="#FF7094"/>
</linearGradient>
<linearGradient id="paint6_linear" x1="366.053" y1="662.046" x2="520.402" y2="405.281" gradientUnits="userSpaceOnUse">
<stop offset="0.00134342" stop-color="#7305FF"/>
<stop offset="0.998396" stop-color="#FF7094"/>
</linearGradient>
</defs>
</svg>
